<svg width="360" height="200" viewBox="0 0 360 200" fill="none" xmlns="http://www.w3.org/2000/svg">
<g clip-path="url(#clip0_2985_9261)">
<rect x="43.2945" y="-143.458" width="387" height="387" transform="rotate(15 43.2945 -143.458)" stroke="#417EE1" stroke-opacity="0.12"/>
<rect x="74.4073" y="-89.5695" width="299" height="299" transform="rotate(15 74.4073 -89.5695)" stroke="#417EE1" stroke-opacity="0.12"/>
<rect x="102.691" y="-40.5798" width="219" height="219" rx="31.5" transform="rotate(15 102.691 -40.5798)" stroke="#417EE1" stroke-opacity="0.12"/>
<rect x="128.147" y="3.51105" width="147" height="147" rx="23.5" transform="rotate(15 128.147 3.51105)" stroke="#417EE1" stroke-opacity="0.12"/>
<rect x="150.421" y="42.0906" width="84" height="84" rx="16" transform="rotate(15 150.421 42.0906)" fill="white"/>
<rect x="150.775" y="42.7029" width="83" height="83" rx="15.5" transform="rotate(15 150.775 42.7029)" stroke="#417EE1" stroke-opacity="0.12"/>
</g>
<rect x="9.35355" y="-202.246" width="483" height="483" transform="rotate(15 9.35355 -202.246)" stroke="#417EE1" stroke-opacity="0.12"/>
<defs>
<clipPath id="clip0_2985_9261">
<rect x="9" y="-202.858" width="484" height="484" transform="rotate(15 9 -202.858)" fill="white"/>
</clipPath>
</defs>
</svg>
