<svg width="760" height="177" viewBox="0 0 760 177" fill="none" xmlns="http://www.w3.org/2000/svg">
<g clip-path="url(#clip0_2985_8247)">
<rect x="195.156" y="-205.064" width="523" height="523" transform="rotate(15 195.156 -205.064)" stroke="#417EE1" stroke-opacity="0.12"/>
<rect x="240.411" y="-126.681" width="395" height="395" transform="rotate(15 240.411 -126.681)" stroke="#417EE1" stroke-opacity="0.12"/>
<rect x="280.009" y="-58.0949" width="283" height="283" rx="31.5" transform="rotate(15 280.009 -58.0949)" stroke="#417EE1" stroke-opacity="0.12"/>
<rect x="313.95" y="0.692817" width="187" height="187" rx="31.5" transform="rotate(15 313.95 0.692817)" stroke="#417EE1" stroke-opacity="0.12"/>
<rect x="341.881" y="49.0702" width="108" height="108" rx="24" transform="rotate(15 341.881 49.0702)" fill="white"/>
<rect x="342.235" y="49.6826" width="107" height="107" rx="23.5" transform="rotate(15 342.235 49.6826)" stroke="#417EE1" stroke-opacity="0.12"/>
</g>
<rect x="144.245" y="-293.246" width="667" height="667" transform="rotate(15 144.245 -293.246)" stroke="#417EE1" stroke-opacity="0.12"/>
<defs>
<clipPath id="clip0_2985_8247">
<rect x="143.891" y="-293.858" width="668" height="668" transform="rotate(15 143.891 -293.858)" fill="white"/>
</clipPath>
</defs>
</svg>
